<svg xmlns="http://www.w3.org/2000/svg" xmlns:xlink="http://www.w3.org/1999/xlink" width="114" height="37.194" viewBox="0 0 114 37.194">
  <defs>
    <rect id="rect-1" width="114" height="37.194" x="0" y="0"/>
    <mask id="mask-2" maskContentUnits="userSpaceOnUse" maskUnits="userSpaceOnUse">
      <rect width="114" height="37.194" x="0" y="0" fill="black"/>
      <use fill="white" xlink:href="#rect-1"/>
    </mask>
  </defs>
  <g>
    <use fill="none" xlink:href="#rect-1"/>
    <g mask="url(#mask-2)">
      <path fill="rgb(129,255,8)" fill-rule="evenodd" d="M.0216895 16.39738302v-3.31838931L19.43378995 0v4.15068891L3.8173516 14.63550205v.20537263l15.61643835 10.48481314v4.15068891L.0216895 16.39738303z"/>
      <path fill="rgb(129,255,8)" fill-rule="evenodd" d="M33.93321991 1.34032822h-3.54623413l-.0542221 35.88615799h4.33789825V28.7413559l-.21689225-4.77761078h.10844803c2.06602097 1.9417572 4.7557373 3.09069824 7.59132385 3.24272155 6.08390046 0 11.506279-5.03703308 11.506279-13.5978241 0-7.83659362-3.64383698-12.86281585-10.46518708-12.86281585-3.2877388.1649437-6.39937973 1.53094864-8.7408638 3.83722687h-.16267395l-.35787582-3.24272537zm8.16609573 3.01573562c5.05365372 0 7.13584519 3.67508698 7.13584519 9.23095703h-.04338074c0 6.22603608-3.32933807 9.96598053-7.76483917 9.96598053-2.5142479-.1389389-4.89553452-1.170372-6.71289826-2.90764618V8.08519745c2.54851532-2.64822388 5.15125656-3.7291336 7.38527298-3.7291336z"/>
      <path fill="rgb(129,255,8)" fill-rule="evenodd" d="M65.63241577 1.34032822h-3.53538513L62.0536499 37.2264862h4.33789826V28.7413559l-.21689606-4.77761078h.11929321c2.06602478 1.9417572 4.75574494 3.09069824 7.59132386 3.24272155 6.08390808 0 11.50627899-5.03703308 11.50627899-13.5978241 0-7.83659362-3.64383698-12.86281585-10.46517945-12.86281585-3.29058838.16633225-6.405159 1.53192902-8.75171661 3.83722687h-.17351532l-.368721-3.24272537zm8.17694855 3.01573562c5.0536499 0 7.13584137 3.67508698 7.13584137 9.23095703 0 6.22603608-3.32933808 9.96598053-7.80821991 9.96598053-2.51424408-.1389389-4.8955307-1.170372-6.71289826-2.90764618V8.08519745c2.54851532-2.64822388 5.15125275-3.7291336 7.3852768-3.7291336z"/>
      <path fill="rgb(129,255,8)" fill-rule="evenodd" d="M94.5770548 25.3364969l15.61643835-10.48481313v-.20537263L94.5770548 4.161498V.01080909L114 13.08980279v3.31838932L94.5770548 29.4871858v-4.1506889z"/>
    </g>
  </g>
</svg>
