<svg id="Layer_1" data-name="Layer 1" xmlns="http://www.w3.org/2000/svg" viewBox="0 0 89.31 39.29"><defs><style>.cls-1{fill:#81ff08;}</style></defs><path class="cls-1" d="M233.84,149.91v-3.4l25.31-13.4v4.26L238.8,148.1v.22l20.35,10.74v4.25Z" transform="translate(-233.84 -128.46)"/><path class="cls-1" d="M267.76,129.13h3.8l.39,3.46h.17a14.41,14.41,0,0,1,9.38-4.13c7.33,0,11.24,5.42,11.24,13.86,0,9.22-5.82,14.64-12.35,14.64a12.92,12.92,0,0,1-8.11-3.52h-.11l.23,5.14v9.16h-4.64ZM288,142.32c0-6-2.24-9.95-7.66-9.95-2.4,0-5.2,1.23-7.93,4v13.53a11.33,11.33,0,0,0,7.2,3.13C284.41,153.05,288,149,288,142.32Z" transform="translate(-233.84 -128.46)"/><path class="cls-1" d="M297.86,159.06l20.35-10.74v-.22l-20.35-10.73v-4.26l25.3,13.4v3.4l-25.3,13.4Z" transform="translate(-233.84 -128.46)"/></svg>